<?xml version="1.0" standalone="no"?>
<!DOCTYPE svg PUBLIC "-//W3C//DTD SVG 20010904//EN"
 "http://www.w3.org/TR/2001/REC-SVG-20010904/DTD/svg10.dtd">
<svg version="1.0" xmlns="http://www.w3.org/2000/svg"
 width="120.000000pt" height="80.000000pt" viewBox="0 0 433.000000 310.000000"
 preserveAspectRatio="xMidYMid meet">

<g transform="translate(0.000000,310.000000) scale(0.100000,-0.100000)"
fill="#000000" stroke="none">
<path d="M2143 2892 c-12 -2 -33 -14 -47 -27 -52 -48 -24 -143 47 -160 54 -14
117 39 117 99 0 49 -63 97 -117 88z"/>
<path d="M2145 2647 c-2 -7 -18 -54 -34 -104 -72 -219 -183 -376 -325 -458
-47 -27 -59 -29 -141 -28 -137 1 -247 47 -353 147 -38 35 -56 46 -63 39 -8 -8
27 -125 122 -412 l134 -401 682 0 682 0 6 23 c4 12 63 192 132 401 139 421
141 432 44 344 -71 -64 -189 -123 -282 -138 -125 -21 -215 9 -312 106 -94 93
-172 231 -223 394 -20 64 -33 90 -46 94 -11 2 -21 -1 -23 -7z"/>
<path d="M1107 2442 c-36 -37 -37 -93 -3 -127 48 -48 116 -41 149 14 25 43 21
78 -12 112 -41 40 -96 41 -134 1z"/>
<path d="M3095 2448 c-39 -35 -44 -86 -11 -125 50 -60 132 -48 162 23 12 29
12 39 0 68 -8 19 -23 39 -34 45 -35 18 -89 13 -117 -11z"/>
<path d="M1490 1250 l0 -100 678 2 677 3 3 98 3 97 -681 0 -680 0 0 -100z"/>
<path d="M3774 888 c-38 -18 -44 -50 -44 -247 0 -182 1 -188 23 -208 33 -30
61 -36 101 -19 46 19 58 62 54 203 l-3 108 -45 0 c-41 0 -45 -2 -48 -26 -2
-20 2 -28 18 -32 19 -5 21 -11 18 -98 -2 -73 -6 -94 -20 -102 -12 -8 -21 -7
-32 2 -22 19 -24 327 -2 357 12 15 18 17 33 8 10 -6 19 -21 21 -33 2 -15 11
-21 27 -21 32 0 36 10 24 54 -8 29 -18 41 -44 52 -40 16 -52 17 -81 2z"/>
<path d="M463 875 c-44 -19 -53 -59 -53 -235 0 -118 3 -151 18 -179 44 -87
162 -47 162 55 0 20 -5 24 -29 24 -26 0 -30 -4 -33 -32 -3 -35 -33 -51 -49
-26 -11 17 -11 319 0 336 13 21 46 10 49 -16 3 -17 10 -22 33 -22 19 0 29 5
29 15 0 29 -28 71 -55 83 -32 15 -32 15 -72 -3z"/>
<path d="M670 650 l0 -240 25 0 c23 0 25 3 25 50 0 34 4 50 13 50 7 0 21 -22
31 -50 16 -45 21 -50 48 -50 25 0 29 3 23 18 -24 56 -27 91 -11 114 13 18 16
49 16 158 -1 90 -5 140 -13 151 -21 27 -54 39 -106 39 l-51 0 0 -240z m110 50
l0 -130 -30 0 -30 0 0 130 0 130 30 0 30 0 0 -130z"/>
<path d="M953 866 l-28 -24 0 -192 0 -192 28 -24 c36 -31 78 -31 114 0 l28 24
3 163 c4 188 -4 231 -48 254 -41 21 -64 19 -97 -9z m82 -216 l0 -175 -25 0
-25 0 -3 165 c-1 90 0 170 3 178 3 7 15 12 27 10 23 -3 23 -4 23 -178z"/>
<path d="M1170 867 c0 -12 14 -116 30 -230 17 -115 30 -213 30 -218 0 -5 13
-9 29 -9 35 0 35 0 52 139 14 119 21 113 40 -36 l13 -103 31 0 32 0 12 98 c6
53 18 142 26 197 24 175 24 180 -6 183 -25 3 -27 0 -33 -45 -31 -223 -35 -227
-56 -55 -13 102 -13 102 -41 102 -33 0 -34 -3 -50 -138 -7 -57 -15 -99 -19
-95 -4 4 -13 46 -19 93 -19 138 -20 140 -47 140 -18 0 -24 -5 -24 -23z"/>
<path d="M1570 651 l0 -241 25 0 25 0 0 177 c0 97 3 173 8 169 4 -4 18 -82 32
-174 l26 -167 47 -3 47 -3 0 240 0 241 -25 0 -25 0 -1 -112 c-1 -62 -4 -142
-8 -178 l-7 -65 -13 90 c-7 50 -18 128 -25 175 l-11 85 -48 3 -47 3 0 -240z"/>
<path d="M2078 874 c-14 -7 -31 -28 -37 -45 -16 -47 -14 -322 3 -363 31 -73
131 -68 156 9 15 45 8 65 -24 65 -21 0 -25 -5 -28 -32 -3 -35 -33 -51 -49 -26
-5 7 -9 83 -9 168 0 85 4 161 9 168 13 21 46 10 49 -16 2 -16 10 -22 27 -22
32 0 37 11 24 49 -18 50 -72 70 -121 45z"/>
<path d="M2290 650 l0 -240 70 0 70 0 0 30 c0 29 -2 30 -45 30 l-45 0 0 210 0
210 -25 0 -25 0 0 -240z"/>
<path d="M2543 866 l-28 -24 0 -192 0 -192 28 -24 c36 -31 78 -31 114 0 l28
24 3 163 c4 188 -4 231 -48 254 -41 21 -64 19 -97 -9z m82 -216 l0 -175 -25 0
-25 0 -3 165 c-1 90 0 170 3 178 3 7 15 12 27 10 23 -3 23 -4 23 -178z"/>
<path d="M2752 863 c3 -25 7 -28 46 -31 l42 -3 0 -210 0 -210 28 3 27 3 3 207
2 207 38 3 c32 3 37 6 37 28 l0 25 -113 3 -113 3 3 -28z"/>
<path d="M3047 884 c-4 -4 -7 -112 -7 -241 l0 -233 30 0 30 0 0 131 0 130 33
-3 32 -3 3 -127 3 -128 24 0 25 0 0 240 0 240 -25 0 c-24 0 -25 -2 -25 -69 0
-88 -5 -101 -41 -101 l-28 0 -3 83 c-3 74 -5 82 -23 85 -12 2 -24 0 -28 -4z"/>
<path d="M3302 653 l3 -238 25 0 25 0 3 238 2 237 -30 0 -30 0 2 -237z"/>
<path d="M3430 650 l0 -240 30 0 30 0 1 183 c0 103 4 173 8 162 5 -11 19 -93
31 -182 l23 -163 49 0 48 0 0 240 0 240 -30 0 -30 0 -1 -177 c-1 -193 -7 -192
-34 7 -25 184 -19 170 -76 170 l-49 0 0 -240z"/>
</g>
</svg>
